<svg width="16" height="16" viewBox="0 0 16 16" fill="none" xmlns="http://www.w3.org/2000/svg">
<g clip-path="url(#clip0_12_2)">
<path d="M0.293031 0.29299C0.480558 0.105519 0.734866 0.000203172 1.00003 0.000203172C1.26519 0.000203172 1.5195 0.105519 1.70703 0.29299L8.00003 6.58599L14.293 0.29299C14.3853 0.197479 14.4956 0.121297 14.6176 0.0688882C14.7396 0.0164792 14.8709 -0.011107 15.0036 -0.0122608C15.1364 -0.0134146 15.2681 0.0118871 15.391 0.0621679C15.5139 0.112449 15.6255 0.186702 15.7194 0.280595C15.8133 0.374487 15.8876 0.486139 15.9379 0.609036C15.9881 0.731932 16.0134 0.863612 16.0123 0.996391C16.0111 1.12917 15.9835 1.26039 15.9311 1.38239C15.8787 1.5044 15.8025 1.61474 15.707 1.70699L9.41403 7.99999L15.707 14.293C15.8892 14.4816 15.99 14.7342 15.9877 14.9964C15.9854 15.2586 15.8803 15.5094 15.6948 15.6948C15.5094 15.8802 15.2586 15.9854 14.9964 15.9877C14.7342 15.9899 14.4816 15.8891 14.293 15.707L8.00003 9.41399L1.70703 15.707C1.51843 15.8891 1.26583 15.9899 1.00363 15.9877C0.741433 15.9854 0.49062 15.8802 0.305212 15.6948C0.119804 15.5094 0.014635 15.2586 0.0123566 14.9964C0.0100781 14.7342 0.110873 14.4816 0.293031 14.293L6.58603 7.99999L0.293031 1.70699C0.10556 1.51946 0.000244141 1.26515 0.000244141 0.99999C0.000244141 0.734825 0.10556 0.480517 0.293031 0.29299Z" fill="#F5F5F5"/>
</g>
<defs>
<clipPath id="clip0_12_2">
<rect width="16" height="16" fill="white"/>
</clipPath>
</defs>
</svg>
